# xmcd CD database file
#
# Track frame offsets:
#	150
#	10614
#	21067
#	32557
#	44065
#	55893
#	67674
#	79676
#	91847
#	104258
#	117364
#	130721
#	144340
#	158026
#	172439
#	186927
#	201540
#	216135
#	230876
#	245689
#	260830
#	276485
#	292440
#	309366
#	327291
#
# Disc length: 4755 seconds
#
# Revision: 0
# Processed by: cddbd v1.5.1PL2 Copyright (c) Steve Scherf et al.
# Submitted via: Feurio! 1.68 - http://www.feurio.com
#
DISCID=7c129119
DTITLE=dolly parton - Queen Of Countrysound CD 2
DYEAR=1900
DGENRE=Country
TTITLE0=All I Can Do
TTITLE1=. .02
TTITLE2=. .03
TTITLE3=. .04
TTITLE4=Jolene
TTITLE5=. .06
TTITLE6=. .07
TTITLE7=9 To 5
TTITLE8=Me And Little Andy
TTITLE9=. .10
TTITLE10=. .11
TTITLE11=Coat Of Many Colors
TTITLE12=. .13
TTITLE13=. .14
TTITLE14=. .15
TTITLE15=Nickels And Dime
TTITLE16=. .17
TTITLE17=. .18
TTITLE18=. .19
TTITLE19=. .20
TTITLE20=. .21
TTITLE21=Wildflowers
TTITLE22=My Girl
TTITLE23=. .24
TTITLE24=Stairway To Heaven
EXTD=
EXTT0=
EXTT1=
EXTT2=
EXTT3=
EXTT4=
EXTT5=
EXTT6=
EXTT7=
EXTT8=
EXTT9=
EXTT10=
EXTT11=
EXTT12=
EXTT13=
EXTT14=
EXTT15=
EXTT16=
EXTT17=
EXTT18=
EXTT19=
EXTT20=
EXTT21=
EXTT22=
EXTT23=
EXTT24=
PLAYORDER=
